<?xml version="1.0" encoding="utf-8"?>
<!-- Generator: Adobe Illustrator 22.0.1, SVG Export Plug-In . SVG Version: 6.00 Build 0)  -->
<svg version="1.1" id="Layer_1" xmlns="http://www.w3.org/2000/svg" xmlns:xlink="http://www.w3.org/1999/xlink" x="0px" y="0px"
	 viewBox="0 0 32 32" style="enable-background:new 0 0 32 32;" xml:space="preserve">
<style type="text/css">
	.st0{fill:none;}
	.st1{fill:#1565C0;}
	.st2{fill:#1E88E5;}
	.st3{fill:#1976D2;}
</style>
<title>colored-32/appengine</title>
<desc>Created with Sketch.</desc>
<g id="Sections">
	<g id="colored-32_x2F_appengine">
		<rect id="Container" class="st0" width="32" height="32"/>
		<g id="Shape" transform="translate(0.000000, 1.000000)">
			<path class="st1" d="M19.7,11.7l-2,2c0.6,0.5,1,1.3,1,2.1c0,1.5-1.2,2.7-2.7,2.7c-0.9,0-1.6-0.4-2.1-1l-2,2
				c1,1.1,2.5,1.8,4.1,1.8c3,0,5.5-2.5,5.5-5.5C21.5,14.2,20.8,12.7,19.7,11.7L19.7,11.7z"/>
			<path class="st2" d="M16,5.8c-5.5,0-10,4.5-10,10c0,5.5,4.5,10,10,10c5.5,0,10-4.5,10-10C26,10.3,21.5,5.8,16,5.8 M16,22.9
				c-3.9,0-7.1-3.2-7.1-7.1c0-3.9,3.2-7.1,7.1-7.1c3.9,0,7.1,3.2,7.1,7.1C23.1,19.7,19.9,22.9,16,22.9"/>
			<path class="st3" d="M31.4,14.8l-4.1-1.3c0.2,0.8,0.3,1.6,0.3,2.4c0,0.6,0,1.2-0.1,1.7h4c0.4-0.1,0.6-0.3,0.6-0.7v-1.5
				C32,15.2,31.8,14.9,31.4,14.8"/>
			<path class="st3" d="M16,4.6c0.8,0,1.6,0.1,2.4,0.3l-1.5-4.1c-0.1-0.4-0.3-0.6-0.7-0.6h-0.6c-0.3,0-0.6,0.2-0.7,0.6l-1.3,4.1
				C14.4,4.7,15.2,4.6,16,4.6"/>
			<path class="st3" d="M4.4,16c0-0.8,0.1-1.7,0.3-2.4l-4.1,1.3C0.2,14.9,0,15.2,0,15.5v1.5c0,0.3,0.2,0.6,0.6,0.7h4
				C4.5,17.2,4.4,16.6,4.4,16"/>
			<path class="st2" d="M16,11.8c-2.2,0-4,1.8-4,4c0,2.2,1.8,4,4,4s4-1.8,4-4C20,13.6,18.2,11.8,16,11.8L16,11.8z M16,17.8
				c-1.1,0-2-0.9-2-2c0-1.1,0.9-2,2-2c1.1,0,2,0.9,2,2C18,16.9,17.1,17.8,16,17.8L16,17.8z"/>
		</g>
	</g>
</g>
</svg>
