<?xml version="1.0" encoding="utf-8"?>
<!-- Generator: Adobe Illustrator 22.0.1, SVG Export Plug-In . SVG Version: 6.00 Build 0)  -->
<svg version="1.1" id="Layer_1" xmlns="http://www.w3.org/2000/svg" xmlns:xlink="http://www.w3.org/1999/xlink" x="0px" y="0px"
	 viewBox="0 0 32 32" style="enable-background:new 0 0 32 32;" xml:space="preserve">
<style type="text/css">
	.st0{fill:none;}
	.st1{fill:#1976D2;}
	.st2{fill:#1565C0;}
	.st3{fill:#1E88E5;}
</style>
<title>colored-32/compute</title>
<desc>Created with Sketch.</desc>
<g id="Sections">
	<g id="colored-32_x2F_compute">
		<rect id="Container" class="st0" width="32" height="32"/>
		<g id="shape" transform="translate(1.000000, 1.000000)">
			<rect id="Rectangle-path" y="8" class="st1" width="4" height="3"/>
			<rect id="Rectangle-path_1_" y="13" class="st1" width="4" height="3"/>
			<rect id="Rectangle-path_2_" y="18" class="st1" width="4" height="3"/>
			<rect id="Rectangle-path_3_" x="25" y="8" class="st2" width="4" height="3"/>
			<rect id="Rectangle-path_4_" x="25" y="13" class="st2" width="4" height="3"/>
			<rect id="Rectangle-path_5_" x="25" y="18" class="st2" width="4" height="3"/>
			<rect id="Rectangle-path_6_" x="18" class="st1" width="3" height="4"/>
			<rect id="Rectangle-path_7_" x="13" class="st1" width="3" height="4"/>
			<rect id="Rectangle-path_8_" x="8" class="st1" width="3" height="4"/>
			<rect id="Rectangle-path_9_" x="18" y="25" class="st2" width="3" height="4"/>
			<rect id="Rectangle-path_10_" x="13" y="25" class="st2" width="3" height="4"/>
			<rect id="Rectangle-path_11_" x="8" y="25" class="st2" width="3" height="4"/>
			<path id="Shape" class="st3" d="M4,4v21h21V4H4L4,4z M22,22H7V7h15V22L22,22z"/>
			<rect id="Rectangle-path_12_" x="10" y="10" class="st3" width="9" height="9"/>
			<polygon id="Shape_1_" class="st2" points="19,19 14.5,19 14.5,14.5 19,10 			"/>
			<polygon id="Shape_2_" class="st1" points="19,19 10,19 14.5,14.5 			"/>
		</g>
	</g>
</g>
</svg>
