<?xml version="1.0" encoding="utf-8"?>
<!-- Generator: Adobe Illustrator 22.0.1, SVG Export Plug-In . SVG Version: 6.00 Build 0)  -->
<svg version="1.1" id="Layer_1" xmlns="http://www.w3.org/2000/svg" xmlns:xlink="http://www.w3.org/1999/xlink" x="0px" y="0px"
	 viewBox="0 0 32 32" style="enable-background:new 0 0 32 32;" xml:space="preserve">
<style type="text/css">
	.st0{fill:none;}
	.st1{fill:#1565C0;}
	.st2{fill:#1976D2;}
	.st3{fill:#1E88E5;}
</style>
<title>colored-32/kubernetes (container engine)</title>
<desc>Created with Sketch.</desc>
<g id="Sections">
	<g id="colored-32_x2F_kubernetes-_x28_container-engine_x29_">
		<rect id="Container" class="st0" width="32" height="32"/>
		<g id="Shape" transform="translate(2.000000, 0.000000)">
			<polygon class="st1" points="18.3,17.7 25.6,21.9 25.6,23.5 17.7,18.9 			"/>
			<polygon class="st2" points="10.8,18.6 2.4,23.5 1.9,22.2 10,17.5 			"/>
			<rect id="Rectangle-path" x="13.3" y="2.1" class="st3" width="1.4" height="9.2"/>
			<path class="st3" d="M14,0L0,8v16l14,8l14-8V8L14,0L14,0z M25,22.2l-11,6.2L3,22.2V9.8l11-6.2l11,6.2V22.2L25,22.2z"/>
			<polygon class="st3" points="14,15.2 20.3,11.5 14,7.9 7.6,11.5 			"/>
			<polygon class="st2" points="13.2,16.5 7.1,12.8 7.1,20.2 13.2,23.8 			"/>
			<polygon class="st1" points="14.8,16.5 14.8,23.8 20.9,20.2 20.9,12.8 			"/>
		</g>
	</g>
</g>
</svg>
